<svg width="191" height="148" viewBox="0 0 191 148" fill="none" xmlns="http://www.w3.org/2000/svg">
<path d="M118.768 31.5117H52.5731C41.3997 31.5117 32.3418 40.2304 32.3418 50.9854V124.525C32.3418 135.28 41.3997 143.999 52.5731 143.999H118.768C129.941 143.999 138.999 135.28 138.999 124.525V50.9854C138.999 40.2304 129.941 31.5117 118.768 31.5117Z" fill="#5D9DD1"/>
<path d="M77.3398 131.366L119.212 51.1602C119.212 51.1602 120.673 61.9883 119.212 65.7983C117.751 69.6083 85.6706 129.763 85.6706 129.763C85.6706 129.763 83.3808 132.37 77.3398 131.366Z" fill="#53B6F9"/>
<path d="M83.9516 67.6367H93.8065L90.5696 74.0069L89.1269 76.8483H79.6309L83.9516 67.6367Z" fill="#1F62ED"/>
<path d="M59.1933 131.366C59.1933 131.366 51.6653 133.773 52.9379 126.352C63.2292 106.882 73.5206 87.4122 83.812 67.9421C86.9712 67.9243 90.1304 67.9065 93.2896 67.8887C92.324 69.9859 91.3622 72.0832 90.3967 74.1805" fill="#3D98F7"/>
<path d="M97.3383 60.3968L93.528 68.2055H55.7954C55.7954 68.2055 50.0874 67.6037 50.043 61.7891C49.9986 55.9744 50.3427 56.2521 50.3427 56.2521C50.387 56.448 50.6016 57.2278 50.7718 57.5589C51.212 58.417 52.3403 60.6852 58.137 60.7849" fill="#3384E7"/>
<path d="M59.0067 131.367H77.3366C91.294 104.633 105.251 77.8954 119.209 51.1614C119.231 49.8724 119.002 48.2879 117.866 47.2517C116.701 46.1906 115.08 46.155 114.418 46.1479C110.941 46.1158 88.1903 46.0802 56.924 46.1479C56.3729 46.1621 53.5688 46.2974 51.6563 48.4517C50.2432 50.0433 50.0841 51.8308 50.0508 52.9631C49.8436 59.7819 53.7982 61.1528 56.2989 60.9819C59.4507 60.7683 97.5162 60.3766 97.3349 60.3802L59.0067 131.36V131.367Z" fill="white"/>
<path d="M147.5 100C159.926 100 170 89.9264 170 77.5C170 65.0736 159.926 55 147.5 55C135.074 55 125 65.0736 125 77.5C125 89.9264 135.074 100 147.5 100Z" fill="#2D88E2"/>
<path d="M145.545 92.8182V62.8182H150.636V92.8182H145.545ZM133.091 80.3636V75.2727H163.091V80.3636H133.091Z" fill="#53B6F9"/>
<path d="M143.545 92.8182V62.8182H148.636V92.8182H143.545ZM131.091 80.3636V75.2727H161.091V80.3636H131.091Z" fill="white"/>
</svg>
